# xmcd
#
# Track frame offsets:
#	150
#	11177
#	22605
#	37985
#	54102
#	71365
#	86932
#	98529
#	112112
#	124905
#
# Disc length: 1884 seconds
#
# Revision: 6
# Processed by: cddbd v1.5.1PL2 Copyright (c) Steve Scherf et al.
# Submitted via: dBpowerAMP V4.0
#
DISCID=74075a0a
DTITLE=Various Artist - Country Hit Kickers
DYEAR=1998
DGENRE=Country
TTITLE0=Vern Gosdin - Set 'Em Up Joe
TTITLE1=Sawyer Brown - Trouble On The Line
TTITLE2=Lari White - That's My Baby
TTITLE3=Lacy J. Dalton - Black Coffee
TTITLE4=Ricky Skaggs - Country Boy
TTITLE5=Hal Ketchum - Sure Love
TTITLE6=Steve Earle - Guitar Town
TTITLE7=John Anderson - Money In The Bank
TTITLE8=Mark Chesnutt - Blame It On Texas
TTITLE9=Dan Seals - Bop
EXTD=
EXTT0=
EXTT1=
EXTT2=
EXTT3=
EXTT4=
EXTT5=
EXTT6=
EXTT7=
EXTT8=
EXTT9=
PLAYORDER=
